<svg xmlns="http://www.w3.org/2000/svg" width="74.783" height="9.379" viewBox="0 0 74.783 9.379">
	<g id="Group_2" data-name="Group 2" transform="translate(537.019 -118.74)">
		<g id="Group_1" data-name="Group 1">
		<path id="Path_1" data-name="Path 1" d="M-529.745,120.371v3.3h4.341v.768h-4.341V128h-.888v-8.4h5.757v.767Z" fill="#eb7262"/>
		<path id="Path_2" data-name="Path 2" d="M-524.513,124.845a3.1,3.1,0,0,1,3.215-3.2,3.093,3.093,0,0,1,3.2,3.2,3.1,3.1,0,0,1-3.2,3.214A3.113,3.113,0,0,1-524.513,124.845Zm5.553,0a2.3,2.3,0,0,0-2.338-2.459,2.31,2.31,0,0,0-2.351,2.459A2.309,2.309,0,0,0-521.3,127.3,2.3,2.3,0,0,0-518.96,124.845Z" fill="#eb7262"/>
		<path id="Path_3" data-name="Path 3" d="M-513.031,128l-2-2.639L-517.049,128h-.959l2.494-3.238-2.375-3.071h.96l1.9,2.471,1.9-2.471h.935l-2.374,3.071L-512.06,128Z" fill="#eb7262"/>
		<path id="Path_4" data-name="Path 4" d="M-504.848,123.706h1.475v3.346a5.318,5.318,0,0,1-3.286,1.067,4.285,4.285,0,0,1-4.522-4.318,4.292,4.292,0,0,1,4.546-4.317,4.339,4.339,0,0,1,3.37,1.367l-.983.959a3.12,3.12,0,0,0-2.316-.959,2.872,2.872,0,0,0-3.046,2.95,2.889,2.889,0,0,0,3.035,2.95,3.391,3.391,0,0,0,1.727-.431Z" fill="#eb7262"/>
		<path id="Path_5" data-name="Path 5" d="M-501.9,119.64a.913.913,0,0,1,.959-.9.894.894,0,0,1,.96.864.921.921,0,0,1-.96.935A.912.912,0,0,1-501.9,119.64Zm.2,1.955h1.5V128h-1.5Z" fill="#eb7262"/>
		<path id="Path_6" data-name="Path 6" d="M-491.914,124.8a3.119,3.119,0,0,1-3.25,3.286,2.641,2.641,0,0,1-2.123-.912V128h-1.427v-8.9h1.5v3.274a2.662,2.662,0,0,1,2.051-.852A3.11,3.11,0,0,1-491.914,124.8Zm-1.522,0a1.863,1.863,0,0,0-1.9-2,1.872,1.872,0,0,0-1.907,2,1.872,1.872,0,0,0,1.907,2A1.863,1.863,0,0,0-493.436,124.8Z" fill="#eb7262"/>
		<path id="Path_7" data-name="Path 7" d="M-484.162,124.8a3.119,3.119,0,0,1-3.25,3.286,2.642,2.642,0,0,1-2.123-.912V128h-1.427v-8.9h1.5v3.274a2.663,2.663,0,0,1,2.051-.852A3.11,3.11,0,0,1-484.162,124.8Zm-1.523,0a1.863,1.863,0,0,0-1.895-2,1.872,1.872,0,0,0-1.907,2,1.872,1.872,0,0,0,1.907,2A1.863,1.863,0,0,0-485.685,124.8Z" fill="#eb7262"/>
		<path id="Path_8" data-name="Path 8" d="M-483.258,124.8a3.225,3.225,0,0,1,3.406-3.275,3.22,3.22,0,0,1,3.418,3.275,3.229,3.229,0,0,1-3.418,3.286A3.233,3.233,0,0,1-483.258,124.8Zm5.314,0a1.865,1.865,0,0,0-1.908-2,1.863,1.863,0,0,0-1.9,2,1.863,1.863,0,0,0,1.9,2A1.866,1.866,0,0,0-477.944,124.8Z" fill="#eb7262"/>
		<path id="Path_9" data-name="Path 9" d="M-469.162,124.329V128h-1.5v-3.478c0-1.14-.564-1.691-1.523-1.691a1.7,1.7,0,0,0-1.787,1.931V128h-1.5v-6.4h1.427v.827a2.786,2.786,0,0,1,2.207-.9A2.5,2.5,0,0,1-469.162,124.329Z" fill="#eb7262"/>
		</g>
		<path id="Path_10" data-name="Path 10" d="M-534.891,121.673l-2.128-2.13v8.516h4.257v-8.516Zm-1.085,1.369a.319.319,0,0,1-.319-.32.319.319,0,0,1,.319-.319.319.319,0,0,1,.319.319A.319.319,0,0,1-535.976,123.042Zm2.17,0a.319.319,0,0,1-.318-.32.318.318,0,0,1,.318-.319.319.319,0,0,1,.32.319A.319.319,0,0,1-533.806,123.042Z" fill="#eb7262"/>
		<path id="Path_11" data-name="Path 11" d="M-467.038,124.863a.534.534,0,0,0-.534.534.534.534,0,0,0,.534.533v0a2.135,2.135,0,0,0,2.134,2.135,2.134,2.134,0,0,0,2.134-2.132h0a.534.534,0,0,0,.534-.533.535.535,0,0,0-.534-.534v-5.338h-4.268Zm3.211.214a.32.32,0,0,1,.321.32.32.32,0,0,1-.321.32.319.319,0,0,1-.319-.32A.319.319,0,0,1-463.827,125.077Zm-2.154.008a.322.322,0,0,1,.32.322.323.323,0,0,1-.32.322.322.322,0,0,1-.32-.322A.321.321,0,0,1-465.981,125.085Z" fill="#eb7262"/>
	</g>
</svg>
